<?xml version="1.0" encoding="utf-8"?>
<svg version="1.1" xmlns="http://www.w3.org/2000/svg" viewBox="0 0 1242 294">
  <g fill="#FF6600" transform="translate(-283.5 -278)">

    <!-- M (original) -->
    <polygon points="534.2,566.9 534.2,403.3 464,566.9 425,566.9 356,403.3 356,566.9 283.5,566.9 283.5,283.5 380.6,283.5 447.3,443.5 517,283.5 606.7,283.5 606.7,566.9"/>

    <!-- A -->
    <path d="M661.7,566.9 H733.7 L791.7,320 L849.7,566.9 H921.7 L827.7,283.5 H755.7 Z"/>
    <rect x="720" y="460" width="143.4" height="37"/>

    <!-- G (shifted +194.6) -->
    <path transform="translate(194.6 0)" d="M936.6,403.7h92.1c7.3,0,11.4,5.9,11.4,12.9v146.5c-25.9,5.8-66.4,9.3-96.6,9.3c-105.7,0-161.4-50.4-161.4-147.6c0-86.7,55.7-146.8,148.6-146.8c40.9,0,76.8,10.9,99.9,26.5l-28.6,48.8c-19.9-8.9-46.9-15.2-65.9-15.2c-53.4,0-78.4,35.4-78.4,86.7c0,54.8,28.9,88.7,82.2,88.7c9.8,0,21.9-0.4,31.6-1.9v-50h-35.1V403.7"/>

    <!-- S (shifted -363.1) -->
    <path transform="translate(-363.1 0)" d="M1765.1,572.4c-47.9,0-92.4-17.2-112.3-30.8l32.3-57.3c18,10.9,53.1,27.7,85.4,27.7c18.3,0,41.4-3.5,41.4-23.9c0-19.1-25.8-24.9-59.7-34.6c-40.9-11.7-88.5-28-88.5-83c0-59.3,52.7-92.5,121.2-92.5c45.3,0,80.3,16,98.2,33.2l-39.3,44.8c-19.5-11.6-39.4-20.7-61.7-20.7c-26.9,0-42.1,10.2-42.1,25c0,14.7,19.5,22.2,44,29.6c43.3,13.4,102.5,27.1,102.5,83.8C1886.8,532.2,1840,572.4,1765.1,572.4"/>

  </g>
</svg>
