<?xml version="1.0" encoding="utf-8"?>
<!-- Generator: Adobe Illustrator 26.2.1, SVG Export Plug-In . SVG Version: 6.00 Build 0)  -->
<svg version="1.1" id="Ebene_1" xmlns="http://www.w3.org/2000/svg" xmlns:xlink="http://www.w3.org/1999/xlink" x="0px" y="0px"
	 viewBox="0 0 2154.3 850.4" style="enable-background:new 0 0 2154.3 850.4;" xml:space="preserve">
<style type="text/css">
	.st0{fill:#FF6600;}
</style>
<g>
	<g>
		<polyline class="st0" points="534.2,566.9 534.2,403.3 464,566.9 425,566.9 356,403.3 356,566.9 283.5,566.9 283.5,283.5 
			380.6,283.5 447.3,443.5 517,283.5 606.7,283.5 606.7,566.9 534.2,566.9 		"/>
		<path class="st0" d="M662.5,566.9V283.5h62c5.5,0,10.9,5.5,10.9,11.3v272.1H662.5"/>
		<path class="st0" d="M936.6,403.7h92.1c7.3,0,11.4,5.9,11.4,12.9v146.5c-25.9,5.8-66.4,9.3-96.6,9.3
			c-105.7,0-161.4-50.4-161.4-147.6c0-86.7,55.7-146.8,148.6-146.8c40.9,0,76.8,10.9,99.9,26.5l-28.6,48.8
			c-19.9-8.9-46.9-15.2-65.9-15.2c-53.4,0-78.4,35.4-78.4,86.7c0,54.8,28.9,88.7,82.2,88.7c9.8,0,21.9-0.4,31.6-1.9v-50h-35.1V403.7
			"/>
		<path class="st0" d="M1255.6,566.9l-33.6-78c-6.9-15.9-11.7-23.8-26.2-23.8h-29.5v101.8H1095V294.8c0-5.9,6.5-11.3,11.1-11.3
			h100.6c54.6,0,101.5,11.3,101.5,81.9c0,31.6-17.5,64-50.3,70.5c16.3,5.5,32.8,26.5,41.7,49.2l32.4,81.8H1255.6L1255.6,566.9z
			 M1201.9,338.1h-35.7v71.1h35.7c21.3,0,38-11.4,38-38.3C1239.9,343.5,1223.2,338.1,1201.9,338.1"/>
		<path class="st0" d="M1489.5,572.4c-92.8,0-141.9-65.5-141.9-147.6c0-81.3,49.1-146.8,141.9-146.8c86.9,0,136.1,65.5,136.1,146.8
			C1625.6,506.9,1576.4,572.4,1489.5,572.4L1489.5,572.4z M1489.5,338.1c-38.2,0-65.4,27.3-65.4,86.7c0,60.3,27.2,87.5,65.4,87.5
			c32.8,0,59.6-27.2,59.6-87.5C1549.1,365.4,1522.3,338.1,1489.5,338.1"/>
		<path class="st0" d="M1765.1,572.4c-47.9,0-92.4-17.2-112.3-30.8l32.3-57.3c18,10.9,53.1,27.7,85.4,27.7
			c18.3,0,41.4-3.5,41.4-23.9c0-19.1-25.8-24.9-59.7-34.6c-40.9-11.7-88.5-28-88.5-83c0-59.3,52.7-92.5,121.2-92.5
			c45.3,0,80.3,16,98.2,33.2l-39.3,44.8c-19.5-11.6-39.4-20.7-61.7-20.7c-26.9,0-42.1,10.2-42.1,25c0,14.7,19.5,22.2,44,29.6
			c43.3,13.4,102.5,27.1,102.5,83.8C1886.8,532.2,1840,572.4,1765.1,572.4"/>
	</g>
</g>
</svg>
